<?xml version="1.0" standalone="no"?>
<!DOCTYPE svg PUBLIC "-//W3C//DTD SVG 20010904//EN"
 "http://www.w3.org/TR/2001/REC-SVG-20010904/DTD/svg10.dtd">
<svg version="1.0" xmlns="http://www.w3.org/2000/svg"
 width="260.000000pt" height="260.000000pt" viewBox="0 0 260.000000 260.000000"
 preserveAspectRatio="xMidYMid meet">
<metadata>
Created by potrace 1.14, written by Peter Selinger 2001-2017
</metadata>
<g transform="translate(0.000000,260.000000) scale(0.100000,-0.100000)"
fill="#000000" stroke="none">
<path d="M1200 2215 c0 -6 -15 -10 -32 -10 -18 1 -37 -1 -43 -4 -10 -5 -49
-12 -82 -14 -13 0 -23 -5 -23 -9 0 -4 -11 -8 -24 -8 -14 0 -28 -4 -31 -10 -3
-5 -13 -10 -21 -10 -16 0 -125 -50 -134 -61 -3 -3 -16 -12 -30 -19 -68 -35
-201 -162 -249 -237 -19 -29 -38 -53 -43 -53 -5 0 -7 -4 -3 -9 3 -5 1 -12 -5
-16 -6 -4 -8 -11 -5 -16 4 -5 1 -9 -4 -9 -6 0 -11 -6 -11 -12 0 -7 -7 -26 -16
-43 -9 -16 -18 -38 -20 -47 -4 -18 -9 -38 -20 -80 -19 -77 -19 -233 1 -308 4
-14 7 -32 7 -40 0 -8 5 -20 9 -26 5 -6 10 -23 11 -38 1 -14 5 -26 9 -26 8 0
33 -60 30 -72 0 -5 2 -8 7 -8 4 0 14 -15 21 -33 8 -17 23 -39 33 -48 10 -9 18
-20 18 -25 0 -15 110 -124 170 -171 61 -46 205 -123 232 -123 9 0 19 -4 22 -9
5 -8 35 -15 116 -28 19 -3 38 -10 41 -15 4 -7 9 -6 13 1 4 6 16 7 29 3 26 -9
198 -9 213 0 5 4 19 5 30 4 10 -2 34 3 52 10 18 7 30 10 28 5 -5 -8 116 33
138 47 6 3 16 7 21 7 6 0 24 8 41 17 l31 17 53 -52 53 -51 163 -1 c90 0 164 1
164 4 0 2 -53 57 -118 121 -65 65 -116 123 -114 129 2 6 21 30 43 53 21 23 39
48 39 55 0 7 4 13 8 13 7 0 84 142 88 163 1 4 3 9 4 12 1 3 4 10 5 15 1 6 3
11 5 13 1 1 3 9 5 17 2 8 7 26 10 40 4 14 8 36 10 50 2 14 4 27 5 30 5 12 2
140 -4 188 -8 66 -54 211 -74 235 -8 9 -12 17 -8 17 4 0 -2 13 -13 29 -12 16
-21 32 -21 36 0 14 -121 154 -161 186 -23 19 -47 40 -54 47 -8 6 -18 12 -24
12 -6 0 -11 3 -11 8 0 4 -21 19 -47 32 -27 14 -56 32 -67 40 -10 8 -19 14 -20
12 -1 -4 -36 7 -56 18 -9 4 -43 14 -75 21 -33 7 -63 18 -67 23 -5 7 -8 6 -8
-3 0 -9 -4 -10 -12 -4 -7 5 -20 9 -28 8 -8 0 -18 4 -22 10 -5 6 -8 6 -8 0 0
-6 -28 -8 -75 -5 -47 3 -75 1 -75 -5 0 -5 -5 -3 -10 5 -5 8 -10 10 -10 5z
m155 -289 c63 -7 85 -14 154 -48 69 -34 201 -154 201 -183 0 -8 5 -15 10 -15
6 0 10 -7 10 -15 0 -8 5 -15 10 -15 6 0 9 -3 8 -7 -2 -5 2 -21 9 -38 22 -59
26 -70 31 -90 9 -36 7 -230 -2 -250 -11 -23 -10 -20 -20 -62 -4 -18 -12 -33
-18 -33 -6 0 -8 -7 -4 -15 3 -8 1 -15 -5 -15 -6 0 -7 -4 -4 -10 3 -5 2 -10 -3
-10 -5 0 -15 -13 -22 -30 l-12 -30 -32 28 c-17 15 -32 30 -34 34 -4 13 -46 54
-57 56 -5 1 -83 4 -172 5 -187 4 -182 10 -78 -93 36 -36 65 -68 65 -72 0 -5 4
-8 10 -8 12 0 59 -47 53 -53 -2 -3 5 -8 16 -12 12 -3 21 -13 21 -21 0 -8 6
-14 13 -15 17 0 -76 -37 -116 -45 -40 -9 -217 -12 -217 -4 0 3 -14 7 -32 8
-18 2 -35 7 -39 13 -3 6 -10 10 -15 10 -18 -2 -74 21 -74 30 0 5 -6 9 -13 9
-7 0 -23 9 -35 20 -12 11 -24 20 -27 20 -8 0 -89 84 -88 90 1 3 -5 14 -13 25
-8 11 -16 25 -16 30 -1 6 -7 15 -13 21 -6 6 -17 31 -24 55 -7 24 -16 51 -19
59 -16 48 -20 238 -5 249 4 3 8 17 7 31 0 27 3 35 29 88 9 19 17 40 17 47 0 7
3 15 8 17 4 2 22 25 40 52 17 27 32 47 32 44 0 -3 18 11 39 32 21 21 48 41 60
45 12 3 21 10 21 15 0 7 41 22 56 19 4 0 10 4 13 9 4 6 18 12 31 14 14 2 30 6
35 9 6 3 32 7 60 8 27 1 51 4 53 6 2 1 15 1 30 -1 15 -2 45 -5 67 -8z"/>
</g>
</svg>
